<svg xmlns="http://www.w3.org/2000/svg" xmlns:xlink="http://www.w3.org/1999/xlink" version="1.1" x="0px" y="0px" viewBox="0 0 32 32" enable-background="new 0 0 32 32" xml:space="preserve"><g display="none"><rect x="-153.333" y="-102.625" display="inline" fill="#000000" width="473.333" height="236"/></g><g display="none"><g display="inline"><g><rect y="12.675" fill="#000000" width="32" height="6.651"/></g><g><g><rect x="0" y="0" fill="#000000" width="6.651" height="32"/></g><g><rect x="12.675" fill="#000000" width="6.651" height="32"/></g><g><rect x="25.349" y="0" fill="#000000" width="6.651" height="32"/></g></g></g></g><g><g><polygon points="6.651,19.325 12.675,19.325 12.675,32 19.325,32 19.325,19.325 25.349,19.325 25.349,32 32,32 32,19.325     32,12.675 32,0 25.349,0 25.349,12.675 19.325,12.675 19.325,0 12.675,0 12.675,12.675 6.651,12.675 6.651,0 0,0 0,12.675     0,19.325 0,32 6.651,32   "/></g></g><g display="none"><g display="inline"><path fill="#000000" d="M31,1v11.675v6.651V31h-4.651V19.325v-1h-1h-6.024h-1v1V31h-4.651V19.325v-1h-1H6.651h-1v1V31H1V19.325    v-6.651V1h4.651v11.675v1h1h6.024h1v-1V1h4.651v11.675v1h1h6.024h1v-1V1H31 M32,0h-6.651v12.675h-6.024V0h-6.651v12.675H6.651V0H0    v12.675v6.651V32h6.651V19.325h6.024V32h6.651V19.325h6.024V32H32V19.325v-6.651V0L32,0z"/></g></g><g display="none"><g display="inline"><polygon fill="#000000" points="25.85,31.5 25.85,18.826 18.825,18.826 18.825,31.5 13.175,31.5 13.175,18.826 6.15,18.826     6.15,31.5 0.5,31.5 0.5,0.5 6.15,0.5 6.15,13.174 13.175,13.174 13.175,0.5 18.825,0.5 18.825,13.174 25.85,13.174 25.85,0.5     31.5,0.5 31.5,31.5   "/><g><path d="M31,1v11.675v6.651V31h-4.651V19.325v-1h-1h-6.024h-1v1V31h-4.651V19.325v-1h-1H6.651h-1v1V31H1V19.325v-6.651V1h4.651     v11.675v1h1h6.024h1v-1V1h4.651v11.675v1h1h6.024h1v-1V1H31 M32,0h-6.651v12.675h-6.024V0h-6.651v12.675H6.651V0H0v12.675v6.651     V32h6.651V19.325h6.024V32h6.651V19.325h6.024V32H32V19.325v-6.651V0L32,0z"/></g></g></g><script xmlns=""/></svg>